#!OML:ASF F:\VICON\USERDATA\INSTALL\Justin_Nancy\Justin_Nancy.ASF
:FULLY-SPECIFIED
:DEGREES
50
root 6.78183 16.3568 -5.8664 -2.89458 -22.3153 18.9084
lowerback 12.9178 -0.602878 -9.10599
upperback -0.884069 -2.34704 -1.37868
thorax -7.93605 -0.787525 4.11264
lowerneck -22.7085 -6.40667 -10.4566
upperneck 17.5746 -6.90108 6.78117
head 9.92774 -3.13203 3.03418
rclavicle -6.32135e-014 -9.54166e-015
rhumerus -53.1394 13.1144 -100.241
rradius 103.709
rwrist -13.0869
rhand -10.1982 25.4506
rfingers 7.12502
rthumb 15.7927 -3.92518
lclavicle -6.32135e-014 -9.54166e-015
lhumerus -40.1818 -5.43398 89.9976
lradius 114.368
lwrist 29.1043
lhand -11.0595 10.1767
lfingers 7.12502
lthumb 14.9632 39.6162
rfemur -39.0774 -1.85321 10.9977
rtibia 95.846
rfoot -8.81409 3.61827
rtoes -5.65721
lfemur -6.29845 -9.48995 -25.2399
ltibia 36.2935
lfoot -19.5807 1.65277
ltoes -36.1584
51
root 6.5789 16.4503 -5.51039 -2.78756 -23.673 18.6782
lowerback 12.7988 -0.624599 -8.84906
upperback -0.805629 -2.31745 -1.37609
thorax -7.79434 -0.793281 3.96122
lowerneck -23.1737 -6.25199 -9.88031
upperneck 17.7369 -6.81468 6.6756
head 10.0328 -3.05549 2.91244
rclavicle 6.81831e-014 -2.22639e-014
rhumerus -53.7897 12.8019 -100.342
rradius 104.022
rwrist -12.6276
rhand -9.87261 25.4127
rfingers 7.12502
rthumb 16.1063 -3.93802
lclavicle 6.81831e-014 -2.22639e-014
lhumerus -39.672 -5.25876 89.5611
lradius 114.539
lwrist 29.4334
lhand -11.7079 10.0978
lfingers 7.12502
lthumb 14.3385 39.5826
rfemur -40.8352 -1.37756 11.6906
rtibia 93.3335
rfoot -9.97708 3.72972
rtoes -7.40217
lfemur -4.49949 -9.0992 -25.1924
ltibia 35.4688
lfoot -16.9912 1.18278
ltoes -36.0276
52
root 6.36468 16.5494 -5.1511 -2.67753 -25.1477 18.3912
lowerback 12.608 -0.674813 -8.75541
upperback -0.791588 -2.33208 -1.18607
thorax -7.66268 -0.806483 4.10888
lowerneck -23.1795 -6.046 -9.74952
upperneck 17.6915 -6.60218 6.80571
head 9.99862 -2.93337 2.97306
rclavicle 3.10104e-014 3.33958e-014
rhumerus -54.6513 12.8823 -100.273
rradius 104.329
rwrist -12.4638
rhand -9.75577 25.43
rfingers 7.12502
rthumb 16.2188 -3.91154
lclavicle 3.10104e-014 3.33958e-014
lhumerus -39.4536 -4.7653 89.3404
lradius 114.685
lwrist 29.478
lhand -11.6058 9.62074
lfingers 7.12502
lthumb 14.4368 39.0986
rfemur -42.1949 -0.632813 12.4648
rtibia 90.4925
rfoot -10.4837 3.41219
rtoes -5.98622
lfemur -2.79427 -8.42833 -25.0206
ltibia 34.6519
lfoot -14.0767 0.464453
ltoes -35.2162
53
root 6.14218 16.659 -4.7751 -2.76096 -26.2649 18.3564
lowerback 12.3926 -0.946631 -8.89906
upperback -0.882439 -2.6746 -0.911526
thorax -7.57341 -0.96223 4.5382
lowerneck -22.4882 -5.77352 -10.217
upperneck 17.4863 -6.21052 7.14557
head 9.79735 -2.76026 3.24131
rclavicle -3.00165e-014 2.8625e-014
rhumerus -55.6611 13.2544 -100.148
rradius 104.462
rwrist -12.6853
rhand -9.22977 25.3191
rfingers 7.12502
rthumb 16.7253 -3.98045
lclavicle -3.00165e-014 2.8625e-014
lhumerus -39.7417 -3.71956 89.3235
lradius 114.919
lwrist 29.2939
lhand -10.925 9.75681
lfingers 7.12502
lthumb 15.0927 39.1866
rfemur -43.0734 -0.270349 12.9787
rtibia 87.2683
rfoot -11.0742 2.87845
rtoes -6.65221
lfemur -1.06195 -7.85057 -25.0845
ltibia 33.7983
lfoot -11.3578 -0.46389
ltoes -36.4255
54
root 5.91922 16.7757 -4.39315 -2.86288 -27.0732 18.4572
lowerback 11.9873 -1.43351 -8.8021
upperback -0.887165 -3.25782 -0.836287
thorax -7.26428 -1.26392 4.64497
lowerneck -21.9018 -5.39721 -10.5982
upperneck 17.2712 -5.68935 7.45406
head 9.59084 -2.52206 3.50025
rclavicle -1.74931e-014 3.97569e-014
rhumerus -56.3637 13.5698 -100.2
rradius 104.517
rwrist -12.8262
rhand -8.57189 24.9811
rfingers 7.12502
rthumb 17.3585 -4.26378
lclavicle -1.74931e-014 3.97569e-014
lhumerus -39.9247 -2.49421 88.9775
lradius 115.105
lwrist 29.2903
lhand -10.9542 9.72658
lfingers 7.12502
lthumb 15.0646 39.1585
rfemur -43.7792 -0.24597 13.3436
rtibia 83.6821
rfoot -11.7312 2.34869
rtoes -10.3152
lfemur 0.708746 -7.45502 -25.2972
ltibia 32.7321
lfoot -8.22146 -2.15673
ltoes -38.3766
55
root 5.69073 16.878 -4.02731 -2.7844 -28.366 18.4892
lowerback 11.3598 -1.67857 -8.52031
upperback -0.802244 -3.48599 -1.01273
thorax -6.80883 -1.41577 4.30152
lowerneck -21.7442 -5.05016 -10.4384
upperneck 17.1412 -5.32518 7.6874
head 9.48351 -2.31918 3.61392
rclavicle 5.10877e-014 -3.33958e-014
rhumerus -56.5777 13.3775 -100.534
rradius 104.448
rwrist -12.6135
rhand -8.62823 24.8622
rfingers 7.12502
rthumb 17.3043 -4.38743
lclavicle 5.10877e-014 -3.33958e-014
lhumerus -39.8959 -1.74875 88.2326
lradius 115.192
lwrist 29.452
lhand -11.7044 9.09083
lfingers 7.12502
lthumb 14.3419 38.5755
rfemur -44.7301 0.278882 13.9181
rtibia 79.8419
rfoot -11.8518 1.74381
rtoes -11.5893
lfemur 2.15837 -6.88897 -25.3186
ltibia 31.3711
lfoot -3.85509 -3.99903
ltoes -38.1054
56
root 5.45853 16.9696 -3.66833 -2.79651 -29.9401 18.7026
lowerback 11.1363 -1.55046 -8.67387
upperback -0.813757 -3.32569 -1.16233
thorax -6.71733 -1.3397 4.19282
lowerneck -22.0957 -4.99361 -9.98676
upperneck 17.3826 -5.3546 7.61915
head 9.61748 -2.30384 3.51184
rclavicle 6.44062e-014 5.88403e-014
rhumerus -56.6522 12.7668 -100.548
rradius 104.22
rwrist -12.4568
rhand -9.23856 25.1602
rfingers 7.12502
rthumb 16.7168 -4.14004
lclavicle 6.44062e-014 5.88403e-014
lhumerus -39.8958 -1.60168 87.7999
lradius 115.208
lwrist 28.7958
lhand -12.4898 8.94275
lfingers 7.12502
lthumb 13.5849 38.4795
rfemur -45.5085 1.13544 14.3086
rtibia 75.7531
rfoot -11.9431 1.12704
rtoes -12.0229
lfemur 3.41275 -6.42087 -25.4647
ltibia 29.7162
lfoot 1.75872 -5.75882
ltoes -36.6659
57
root 5.2271 17.0622 -3.29124 -3.21153 -31.2185 19.3502
lowerback 11.205 -1.41632 -9.31261
upperback -0.943279 -3.25372 -1.19288
thorax -6.87747 -1.27018 4.51215
lowerneck -22.0392 -4.94853 -9.93012
upperneck 17.5505 -5.29027 7.46271
head 9.65382 -2.29022 3.45923
rclavicle 8.74653e-015 -2.38542e-014
rhumerus -57.8326 12.4663 -100.193
rradius 104.651
rwrist -12.547
rhand -9.86441 25.0096
rfingers 7.12502
rthumb 16.1142 -4.34049
lclavicle 8.74653e-015 -2.38542e-014
lhumerus -40.0776 -1.45671 87.743
lradius 115.182
lwrist 28.0657
lhand -12.7909 9.53724
lfingers 7.12502
lthumb 13.2947 39.0932
rfemur -45.7856 1.50575 14.1894
rtibia 71.4837
rfoot -12.1736 0.715545
rtoes -15.4841
lfemur 5.07451 -6.16107 -26.1593
ltibia 27.799
lfoot 7.782 -7.63466
ltoes -35.5209
58
root 4.98758 17.1578 -2.90043 -3.60172 -32.2677 19.8025
lowerback 11.2602 -1.48243 -9.78806
upperback -1.24213 -3.41818 -0.97989
thorax -7.17254 -1.30198 5.04072
lowerneck -21.3142 -4.71307 -10.4984
upperneck 17.5195 -4.86589 7.49808
head 9.49026 -2.14413 3.63456
rclavicle -9.93923e-014 -6.36111e-015
rhumerus -58.4789 12.2616 -99.6635
rradius 104.359
rwrist -12.2905
rhand -9.7631 24.6964
rfingers 7.12502
rthumb 16.2118 -4.64571
lclavicle -9.93923e-014 -6.36111e-015
lhumerus -40.84 -0.733893 87.9222
lradius 115.223
lwrist 27.6717
lhand -13.0363 9.69017
lfingers 7.12502
lthumb 13.0582 39.2614
rfemur -45.6962 1.47967 14.3203
rtibia 66.9905
rfoot -12.2931 0.454113
rtoes -18.2921
lfemur 6.95424 -6.26099 -26.7941
ltibia 25.7213
lfoot 13.334 -8.97847
ltoes -32.7307
59
root 4.74046 17.2458 -2.51572 -3.61823 -33.1988 19.6274
lowerback 11.1939 -1.61231 -9.697
upperback -1.33173 -3.55547 -0.717963
thorax -7.19777 -1.36205 5.2905
lowerneck -20.8795 -4.56749 -10.6763
upperneck 17.1594 -4.59262 7.29458
head 9.26003 -2.05724 3.62955
rclavicle -7.65321e-014 -3.18055e-014
rhumerus -58.9664 12.0982 -99.1936
rradius 104.329
rwrist -11.8314
rhand -9.94979 24.5886
rfingers 7.12502
rthumb 16.032 -4.76807
lclavicle -7.65321e-014 -3.18055e-014
lhumerus -41.3676 -0.11745 88.0168
lradius 115.291
lwrist 27.0011
lhand -13.2449 9.34229
lfingers 7.12502
lthumb 12.8571 38.9263
rfemur -45.3609 1.48626 15.0683
rtibia 62.2357
rfoot -12.8277 -0.0539542
rtoes -18.645
lfemur 8.61417 -6.77514 -26.816
ltibia 23.8141
lfoot 18.1555 -9.69439
ltoes -28.4217
60
root 4.49198 17.3184 -2.14683 -3.82867 -34.5893 19.506
lowerback 11.3452 -1.39506 -9.6768
upperback -1.2621 -3.27034 -0.636532
thorax -7.2502 -1.2212 5.32878
lowerneck -20.8673 -4.59603 -10.4324
upperneck 17.0064 -4.62858 6.96648
head 9.19357 -2.09231 3.46616
rclavicle -8.80616e-014 3.18055e-015
rhumerus -59.181 11.5009 -98.6071
rradius 104.49
rwrist -11.4356
rhand -10.2048 24.5991
rfingers 7.12502
rthumb 15.7864 -4.77714
lclavicle -8.80616e-014 3.18055e-015
lhumerus -41.6219 -0.384024 88.2263
lradius 115.3
lwrist 27.2557
lhand -12.527 10.2826
lfingers 7.12502
lthumb 13.5491 39.8218
rfemur -44.754 2.05756 15.7999
rtibia 57.2853
rfoot -11.855 -0.236165
rtoes -13.7163
lfemur 10.2501 -7.27478 -27.0211
ltibia 22.3666
lfoot 21.9858 -10.1963
ltoes -28.6623
61
root 4.24461 17.393 -1.77357 -3.61248 -35.5709 18.9701
lowerback 11.5781 -1.28153 -9.37278
upperback -1.44825 -3.08716 -0.305613
thorax -7.60997 -1.10998 5.50194
lowerneck -20.8053 -4.60864 -10.5508
upperneck 17.2237 -4.55519 6.64593
head 9.24646 -2.10509 3.38595
rclavicle -2.50469e-014 -1.27222e-014
rhumerus -59.8283 10.9739 -97.7405
rradius 104.876
rwrist -11.2489
rhand -10.4602 24.6448
rfingers 7.12502
rthumb 15.5405 -4.75074
lclavicle -2.50469e-014 -1.27222e-014
lhumerus -42.15 -0.36327 88.5434
lradius 115.064
lwrist 26.5107
lhand -11.6 9.95654
lfingers 7.12502
lthumb 14.4424 39.434
rfemur -44.0611 2.33152 16.8413
rtibia 52.1496
rfoot -10.5744 -0.489168
rtoes -11.5056
lfemur 11.4013 -7.72946 -26.8107
ltibia 21.5976
lfoot 24.7013 -12.3009
ltoes -26.145
62
root 3.99647 17.4698 -1.3921 -3.42357 -36.494 18.6691
lowerback 11.6708 -1.21905 -9.21543
upperback -1.67108 -2.97692 0.0233827
thorax -7.913 -1.03037 5.76131
lowerneck -20.8987 -4.55954 -10.7849
upperneck 17.593 -4.34053 6.29403
head 9.36952 -2.06371 3.33478
rclavicle -2.36554e-014 2.38542e-014
rhumerus -60.5766 10.6726 -96.8875
rradius 105.354
rwrist -11.2256
rhand -10.7149 24.8435
rfingers 7.12502
rthumb 15.2952 -4.57096
lclavicle -2.36554e-014 2.38542e-014
lhumerus -42.6368 -0.186269 88.9152
lradius 114.966
lwrist 26.1972
lhand -11.3802 10.134
lfingers 7.12502
lthumb 14.6542 39.5962
rfemur -43.2736 2.48961 17.6116
rtibia 47.0547
rfoot -9.08021 -0.542705
rtoes -8.93836
lfemur 12.1395 -8.22877 -26.8612
ltibia 21.4756
lfoot 26.4744 -15.3886
ltoes -22.1728
63
root 3.74316 17.5556 -1.00884 -3.55419 -36.9657 19.0143
lowerback 11.63 -1.26642 -9.38267
upperback -1.85134 -3.06424 0.103578
thorax -8.06125 -1.04864 5.96016
lowerneck -20.6604 -4.56274 -10.9462
upperneck 17.5748 -4.23381 5.89684
head 9.30687 -2.07352 3.23727
rclavicle 1.92821e-014 -2.70347e-014
rhumerus -61.1498 10.2626 -96.1978
rradius 105.812
rwrist -11.3167
rhand -10.9491 24.9463
rfingers 7.12502
rthumb 15.0695 -4.48523
lclavicle 1.92821e-014 -2.70347e-014
lhumerus -43.1283 -0.393269 89.4941
lradius 114.852
lwrist 27.055
lhand -12.6825 9.30569
lfingers 7.12502
lthumb 13.3993 38.8548
rfemur -42.3099 2.09357 17.7745
rtibia 42.0122
rfoot -6.68228 -1.95583
rtoes -6.05083
lfemur 12.4009 -9.32023 -27.55
ltibia 22.104
lfoot 28.0837 -16.5119
ltoes -17.0668
64
root 3.49457 17.6199 -0.634993 -3.92622 -37.2726 19.7109
lowerback 11.4344 -1.2752 -9.40864
upperback -1.89534 -3.09069 -0.237482
thorax -8.01054 -1.07174 5.60155
lowerneck -20.1843 -4.73369 -11.1583
upperneck 17.3421 -4.48987 6.05158
head 9.1749 -2.19438 3.29011
rclavicle -1.1291e-013 3.18055e-015
rhumerus -61.2529 9.18321 -95.8189
rradius 106.135
rwrist -11.5041
rhand -11.2487 24.9482
rfingers 7.12502
rthumb 14.7809 -4.50475
lclavicle -1.1291e-013 3.18055e-015
lhumerus -43.399 -1.16704 89.5825
lradius 114.66
lwrist 27.3311
lhand -13.0553 9.38777
lfingers 7.12502
lthumb 13.0399 38.9602
rfemur -41.4101 1.27948 17.8271
rtibia 37.3307
rfoot -4.50866 -2.78376
rtoes -3.68405
lfemur 12.5536 -10.3269 -28.523
ltibia 23.0825
lfoot 29.2317 -15.3676
ltoes -9.13508
